# Blender v2.81 (sub 16) OBJ File: ''
# www.blender.org
o Sphere
v 0.000000 0.070711 0.070711
v 0.000000 0.038268 0.092388
v 0.000000 -0.038268 0.092388
v 0.000000 -0.092388 0.038268
v -0.014645 0.092388 0.035355
v -0.027060 0.070711 0.065328
v -0.035355 0.038268 0.085355
v -0.038268 -0.000000 0.092388
v -0.035355 -0.038268 0.085355
v -0.027060 -0.070711 0.065328
v -0.014645 -0.092388 0.035355
v -0.027060 0.092388 0.027060
v -0.050000 0.070711 0.050000
v -0.065328 0.038268 0.065328
v -0.070711 -0.000000 0.070711
v -0.065328 -0.038268 0.065328
v -0.050000 -0.070711 0.050000
v -0.027060 -0.092388 0.027060
v -0.035355 0.092388 0.014645
v -0.065328 0.070711 0.027060
v -0.085355 0.038268 0.035355
v -0.092388 -0.000000 0.038268
v -0.085355 -0.038268 0.035355
v -0.065328 -0.070711 0.027060
v -0.035355 -0.092388 0.014645
v -0.038268 0.092388 0.000000
v -0.070711 0.070711 0.000000
v -0.092388 0.038268 0.000000
v -0.100000 -0.000000 0.000000
v -0.092388 -0.038268 0.000000
v -0.070711 -0.070711 0.000000
v -0.038268 -0.092388 0.000000
v -0.035355 0.092388 -0.014645
v -0.065328 0.070711 -0.027060
v -0.085355 0.038268 -0.035355
v -0.092388 -0.000000 -0.038268
v -0.085355 -0.038268 -0.035355
v -0.065328 -0.070711 -0.027060
v -0.035355 -0.092388 -0.014645
v -0.027060 0.092388 -0.027060
v -0.050000 0.070711 -0.050000
v -0.065328 0.038268 -0.065328
v -0.070711 -0.000000 -0.070711
v -0.065328 -0.038268 -0.065328
v -0.050000 -0.070711 -0.050000
v -0.027060 -0.092388 -0.027060
v -0.014645 0.092388 -0.035355
v -0.027060 0.070711 -0.065328
v -0.035355 0.038268 -0.085355
v -0.038268 -0.000000 -0.092388
v -0.035355 -0.038268 -0.085355
v -0.027060 -0.070711 -0.065328
v -0.014645 -0.092388 -0.035355
v 0.000000 0.092388 -0.038268
v 0.000000 0.070711 -0.070711
v 0.000000 0.038268 -0.092388
v 0.000000 -0.000000 -0.100000
v 0.000000 -0.038268 -0.092388
v 0.000000 -0.070711 -0.070711
v 0.000000 -0.092388 -0.038268
v 0.014645 0.092388 -0.035355
v 0.027060 0.070711 -0.065328
v 0.035355 0.038268 -0.085355
v 0.038268 -0.000000 -0.092388
v 0.035355 -0.038268 -0.085355
v 0.027060 -0.070711 -0.065328
v 0.014645 -0.092388 -0.035355
v 0.027060 0.092388 -0.027060
v 0.050000 0.070711 -0.050000
v 0.065328 0.038268 -0.065328
v 0.070711 -0.000000 -0.070711
v 0.065328 -0.038268 -0.065328
v 0.050000 -0.070711 -0.050000
v 0.027060 -0.092388 -0.027060
v 0.035355 0.092388 -0.014645
v 0.065328 0.070711 -0.027060
v 0.085355 0.038268 -0.035355
v 0.092388 -0.000000 -0.038268
v 0.085355 -0.038268 -0.035355
v 0.065328 -0.070711 -0.027060
v 0.035355 -0.092388 -0.014645
v 0.038268 0.092388 0.000000
v 0.070711 0.070711 0.000000
v 0.092388 0.038268 0.000000
v 0.100000 -0.000000 0.000000
v 0.092388 -0.038268 0.000000
v 0.070711 -0.070711 0.000000
v 0.038268 -0.092388 0.000000
v 0.035355 0.092388 0.014645
v 0.065328 0.070711 0.027060
v 0.085355 0.038268 0.035355
v 0.092388 -0.000000 0.038268
v 0.085355 -0.038268 0.035355
v 0.065328 -0.070711 0.027060
v 0.035355 -0.092388 0.014645
v 0.027060 0.092388 0.027060
v 0.050000 0.070711 0.050000
v 0.065328 0.038268 0.065328
v 0.070711 -0.000000 0.070711
v 0.065328 -0.038268 0.065328
v 0.050000 -0.070711 0.050000
v 0.027060 -0.092388 0.027060
v 0.014645 0.092388 0.035355
v 0.027060 0.070711 0.065328
v 0.035355 0.038268 0.085355
v 0.038268 -0.000000 0.092388
v 0.035355 -0.038268 0.085355
v 0.027060 -0.070711 0.065328
v 0.014645 -0.092388 0.035355
v 0.000000 0.100000 0.000000
v -0.000000 0.092388 0.038268
v -0.000000 -0.000000 0.100000
v -0.000000 -0.070711 0.070711
v 0.000000 -0.100000 0.000000
vt 0.821130 0.845228
vt 0.998144 0.998105
vt 0.969262 0.845228
vt 0.102753 0.845228
vt -0.030771 0.677399
vt -0.045379 0.845228
vt 1.355803 0.300475
vt 1.401544 0.254730
vt 1.263250 0.162614
vt 1.137164 -0.329792
vt 1.274566 -0.421908
vt 1.228825 -0.467653
vt 0.949113 0.677399
vt -0.028701 0.998105
vt 0.074258 0.520169
vt 0.012900 0.520169
vt 0.879408 0.520168
vt 0.940766 0.520168
vt 1.299321 -0.362139
vt -0.310086 0.473817
vt -0.466918 0.323362
vt -0.420794 0.478510
vt 0.296309 0.959879
vt 0.131636 0.998105
vt 0.199047 0.650369
vt 0.082605 0.677399
vt 1.390159 -0.500000
vt -0.322271 0.317231
vt -0.478633 0.154818
vt 1.426299 0.194961
vt 0.192359 0.478510
vt 0.137276 0.505540
vt 1.435899 -0.270023
vt 1.435899 -0.389561
vt -0.166207 0.323362
vt -0.322068 0.148181
vt 0.387876 0.744655
vt 0.254892 0.809912
vt 1.426299 0.130267
vt 1.299321 -0.297445
vt -0.190640 0.478510
vt -0.153146 0.154818
vt -0.309509 -0.007594
vt -0.478633 1.391410
vt -0.352938 1.274018
vt -0.457263 1.229633
vt -0.022487 0.340824
vt -0.159831 -0.344552
vt -0.067715 -0.150877
vt -0.015536 -0.311056
vt 1.401544 0.070498
vt 1.274566 -0.237676
vt -0.405002 1.069480
vt 0.002787 -0.463745
vt -0.205576 -0.021468
vt -0.145807 -0.007594
vt 1.355803 0.024753
vt 1.228825 -0.191931
vt -0.256372 1.344476
vt -0.268694 1.127473
vt -0.322449 -0.500000
vt -0.153397 -0.500000
vt -0.178154 -0.176514
vt -0.270270 -0.021468
vt -0.369911 1.453563
vt -0.422172 1.415431
vt -0.142525 1.219531
vt -0.182267 0.998105
vt -0.297692 -0.176514
vt -0.182267 1.430281
vt -0.478633 -0.463745
vt -0.316015 -0.344552
vt -0.408131 -0.150877
vt 0.652088 0.323362
vt 0.483465 0.173719
vt 0.508367 0.340824
vt -0.460310 -0.311056
vt 1.296039 -0.000004
vt 1.169061 -0.167174
vt 1.104374 -0.167174
vt 1.195211 -0.029313
vt 0.808151 0.317230
vt 0.639027 0.154818
vt -0.345649 0.809912
vt -0.391585 0.600424
vt -0.478633 0.744656
vt 1.231352 -0.000004
vt 0.795967 0.473817
vt 0.676521 0.478510
vt 0.795389 -0.007594
vt 0.639326 -0.001462
vt -0.228033 0.505540
vt -0.283117 0.478510
vt 0.952799 0.323362
vt 0.807949 0.148181
vt -0.193511 0.845228
vt -0.289804 0.650369
vt 1.171588 0.024753
vt 1.044610 -0.191931
vt 0.906675 0.478510
vt -0.222393 0.998105
vt -0.387067 0.959879
vt -0.173362 0.677399
vt 1.075684 -0.029313
vt 0.998869 -0.237677
vt 0.693146 0.677399
vt 0.821130 0.845228
vt 0.806522 0.677399
vt -0.062056 0.998105
vt -0.103657 0.520169
vt -0.165015 0.520169
vt 0.762851 0.520169
vt 0.672998 0.845228
vt 0.804452 0.998105
vt -0.045379 0.845228
vt 1.125847 0.070498
vt 0.483465 0.154818
vt 0.327102 0.317230
vt 0.471750 0.323362
vt 0.964514 0.102845
vt 1.010255 -0.007594
vt 0.638476 0.505540
vt 0.701493 0.520169
vt 0.520859 0.809912
vt 0.644115 0.998105
vt 0.425626 0.478510
vt 1.101092 0.130267
vt 0.974115 -0.297446
vt 0.576705 0.650369
vt 0.583392 0.478510
vt 0.158277 -0.001462
vt 0.326900 0.148181
vt 0.314340 -0.007594
vt 0.171039 0.323362
vt 0.314918 0.473817
vt 1.101092 0.194961
vt 0.974115 -0.362139
vt 0.474923 0.600424
vt 0.157978 0.154818
vt 0.597815 1.370633
vt 0.409245 1.268472
vt 0.461506 1.428625
vt 1.125847 0.254730
vt 0.998869 -0.421908
vt 0.413705 -0.356717
vt 0.321589 -0.163042
vt 0.465884 -0.196538
vt 0.027319 0.340824
vt 0.444336 1.082674
vt 0.387876 1.106695
vt 0.275844 -0.486126
vt 0.335613 -0.500000
vt 0.484207 -0.043849
vt 1.044611 -0.467653
vt 0.303266 -0.331080
vt 0.165405 -0.163042
vt 0.684242 1.500000
vt 0.723984 1.278574
vt 0.513571 1.224087
vt 0.496597 1.044542
vt 0.211150 -0.486126
vt 0.328023 -0.007594
vt 1.171588 0.300475
vt 0.610137 1.153629
vt 0.536703 0.998105
vt 0.151381 -0.500000
vt 0.183728 -0.331080
vt 0.021110 -0.196538
vt 0.158971 -0.007594
vt 0.820806 1.166465
vt 1.231352 0.325232
vt 1.104374 -0.492410
vt 0.965256 -0.318688
vt 0.796633 -0.169044
vt 0.940353 -0.151583
vt 1.003784 0.505540
vt 1.167336 0.600424
vt 1.058868 0.478510
vt 0.653332 -0.500000
vt 0.809694 -0.337588
vt 0.809395 -0.493868
vt 0.640569 -0.175176
vt 0.772200 -0.013896
vt 1.296039 0.325232
vt 1.169062 -0.492410
vt 1.121400 0.809912
vt 1.254384 0.744655
vt 0.640772 -0.344225
vt 1.205202 0.463093
vt 1.065555 0.650369
vt 0.495922 -0.169044
vt 1.435157 0.417348
vt 1.324729 0.463093
vt 1.162818 0.959879
vt 0.542046 -0.013896
vt 0.652754 -0.018589
vt 0.837807 0.998105
vt 0.835738 0.677399
vt 0.300828 0.600424
vt -0.153445 -0.001462
vt 0.002416 0.173719
vt -0.045702 1.097748
vt -0.045702 1.331640
vt -0.330039 -0.007594
vt -0.329806 1.500000
vt 0.964514 0.154818
vt 0.965256 -0.075059
vt -0.059987 0.677399
vt 0.479442 0.959879
vt 0.195472 0.478510
vt 0.387876 0.744655
vt 0.964514 0.222383
vt 0.002416 0.173719
vt 0.820806 1.400357
vt 0.684242 1.067824
vt 0.073289 -0.356717
vt 0.002787 -0.043849
vt 0.484207 -0.337588
vn 0.1915 0.1915 -0.9626
vn 0.1632 -0.5481 -0.8203
vn 0.0388 -0.9800 -0.1949
vn 0.0388 0.9800 -0.1949
vn 0.1632 0.5481 -0.8203
vn 0.1915 -0.1915 -0.9626
vn 0.1098 -0.8264 -0.5522
vn 0.1098 0.8264 -0.5522
vn 0.1104 0.9800 -0.1653
vn 0.4647 0.5481 -0.6954
vn 0.5453 -0.1915 -0.8161
vn 0.3128 -0.8264 -0.4681
vn 0.3128 0.8264 -0.4681
vn 0.5453 0.1915 -0.8161
vn 0.4647 -0.5481 -0.6954
vn 0.1104 -0.9800 -0.1653
vn 0.4681 -0.8264 -0.3128
vn 0.4681 0.8264 -0.3128
vn 0.8161 0.1915 -0.5453
vn 0.6954 -0.5481 -0.4647
vn 0.1653 -0.9800 -0.1104
vn 0.1653 0.9800 -0.1104
vn 0.6954 0.5481 -0.4647
vn 0.8161 -0.1915 -0.5453
vn 0.5522 0.8264 -0.1098
vn 0.9626 0.1915 -0.1915
vn 0.8203 -0.5481 -0.1632
vn 0.1949 -0.9800 -0.0388
vn 0.1949 0.9800 -0.0388
vn 0.8203 0.5481 -0.1632
vn 0.9626 -0.1915 -0.1915
vn 0.5522 -0.8264 -0.1098
vn 0.1949 -0.9800 0.0388
vn 0.1949 0.9800 0.0388
vn 0.8203 0.5481 0.1632
vn 0.9626 -0.1915 0.1915
vn 0.5522 -0.8264 0.1098
vn 0.5522 0.8264 0.1098
vn 0.9626 0.1915 0.1915
vn 0.8203 -0.5481 0.1632
vn 0.6954 0.5481 0.4647
vn 0.8161 -0.1915 0.5453
vn 0.4681 -0.8264 0.3128
vn 0.4681 0.8264 0.3128
vn 0.8161 0.1915 0.5453
vn 0.6954 -0.5481 0.4647
vn 0.1653 -0.9800 0.1104
vn 0.1653 0.9800 0.1104
vn 0.3128 0.8264 0.4681
vn 0.5453 0.1915 0.8161
vn 0.4647 -0.5481 0.6954
vn 0.1104 -0.9800 0.1653
vn 0.1104 0.9800 0.1653
vn 0.4647 0.5481 0.6954
vn 0.5453 -0.1915 0.8161
vn 0.3128 -0.8264 0.4681
vn 0.1915 0.1915 0.9626
vn 0.1632 -0.5481 0.8203
vn 0.0388 -0.9800 0.1949
vn 0.0388 0.9800 0.1949
vn 0.1632 0.5481 0.8203
vn 0.1915 -0.1915 0.9626
vn 0.1098 -0.8264 0.5522
vn 0.1098 0.8264 0.5522
vn -0.0388 0.9800 0.1949
vn -0.1632 0.5481 0.8203
vn -0.1915 -0.1915 0.9626
vn -0.1098 -0.8264 0.5522
vn -0.1098 0.8264 0.5522
vn -0.1915 0.1915 0.9626
vn -0.1632 -0.5481 0.8203
vn -0.0388 -0.9800 0.1949
vn -0.5453 -0.1915 0.8161
vn -0.3128 -0.8264 0.4681
vn -0.3128 0.8264 0.4681
vn -0.5453 0.1915 0.8161
vn -0.4647 -0.5481 0.6954
vn -0.1104 -0.9800 0.1653
vn -0.1104 0.9800 0.1653
vn -0.4647 0.5481 0.6954
vn -0.4681 0.8264 0.3128
vn -0.8161 0.1915 0.5453
vn -0.6954 -0.5481 0.4647
vn -0.1653 -0.9800 0.1104
vn -0.1653 0.9800 0.1104
vn -0.6954 0.5481 0.4647
vn -0.8161 -0.1915 0.5453
vn -0.4681 -0.8264 0.3128
vn -0.8203 -0.5481 0.1632
vn -0.1949 -0.9800 0.0388
vn -0.1949 0.9800 0.0388
vn -0.8203 0.5481 0.1632
vn -0.9626 -0.1915 0.1915
vn -0.5522 -0.8264 0.1098
vn -0.5522 0.8264 0.1098
vn -0.9626 0.1915 0.1915
vn -0.1949 0.9800 -0.0388
vn -0.8203 0.5481 -0.1632
vn -0.9626 -0.1915 -0.1915
vn -0.5522 -0.8264 -0.1098
vn -0.5522 0.8264 -0.1098
vn -0.9626 0.1915 -0.1915
vn -0.8203 -0.5481 -0.1632
vn -0.1949 -0.9800 -0.0388
vn -0.4681 -0.8264 -0.3128
vn -0.4681 0.8264 -0.3128
vn -0.8161 0.1915 -0.5453
vn -0.6954 -0.5481 -0.4647
vn -0.1653 -0.9800 -0.1104
vn -0.1653 0.9800 -0.1104
vn -0.6954 0.5481 -0.4647
vn -0.8161 -0.1915 -0.5453
vn -0.3128 0.8264 -0.4681
vn -0.5453 0.1915 -0.8161
vn -0.4647 -0.5481 -0.6954
vn -0.1104 -0.9800 -0.1653
vn -0.1104 0.9800 -0.1653
vn -0.4647 0.5481 -0.6954
vn -0.5453 -0.1915 -0.8161
vn -0.3128 -0.8264 -0.4681
vn -0.0388 -0.9800 -0.1949
vn -0.0388 0.9800 -0.1949
vn -0.1632 0.5481 -0.8203
vn -0.1915 -0.1915 -0.9626
vn -0.1098 -0.8264 -0.5522
vn -0.1098 0.8264 -0.5522
vn -0.1915 0.1915 -0.9626
vn -0.1632 -0.5481 -0.8203
s off
f 9/1/1 112/2/1 3/3/1
f 7/4/2 1/5/2 2/6/2
f 111/7/3 5/8/3 110/9/3
f 114/10/4 11/11/4 4/12/4
f 113/13/5 9/1/5 3/3/5
f 112/14/6 7/4/6 2/6/6
f 1/5/7 5/15/7 111/16/7
f 11/17/8 113/13/8 4/18/8
f 114/10/9 18/19/9 11/11/9
f 17/20/10 9/21/10 10/22/10
f 15/23/11 7/4/11 8/24/11
f 13/25/12 5/15/12 6/26/12
f 18/19/13 10/27/13 11/11/13
f 16/28/14 8/29/14 9/21/14
f 7/4/15 13/25/15 6/26/15
f 5/8/16 12/30/16 110/9/16
f 13/25/17 19/31/17 12/32/17
f 18/19/18 24/33/18 17/34/18
f 23/35/19 15/36/19 16/28/19
f 21/37/20 13/25/20 14/38/20
f 12/30/21 19/39/21 110/9/21
f 114/10/22 25/40/22 18/19/22
f 24/41/23 16/28/23 17/20/23
f 22/42/24 14/43/24 15/36/24
f 25/44/25 31/45/25 24/46/25
f 30/47/26 22/42/26 23/35/26
f 28/48/27 20/49/27 21/50/27
f 19/39/28 26/51/28 110/9/28
f 114/10/29 32/52/29 25/40/29
f 31/45/30 23/53/30 24/46/30
f 22/54/31 28/48/31 21/50/31
f 20/49/32 26/55/32 19/56/32
f 26/51/33 33/57/33 110/9/33
f 114/10/34 39/58/34 32/52/34
f 38/59/35 30/60/35 31/45/35
f 36/61/36 28/48/36 29/62/36
f 27/63/37 33/64/37 26/55/37
f 39/65/38 31/45/38 32/66/38
f 37/67/39 29/68/39 30/60/39
f 28/48/40 34/69/40 27/63/40
f 45/70/41 37/67/41 38/59/41
f 43/71/42 35/72/42 36/61/42
f 41/73/43 33/64/43 34/69/43
f 39/65/44 45/70/44 38/59/44
f 44/74/45 36/75/45 37/76/45
f 42/77/46 34/69/46 35/72/46
f 33/57/47 40/78/47 110/9/47
f 114/10/48 46/79/48 39/58/48
f 53/80/49 45/81/49 46/79/49
f 51/82/50 43/83/50 44/74/50
f 49/84/51 41/85/51 42/86/51
f 40/78/52 47/87/52 110/9/52
f 114/10/53 53/80/53 46/79/53
f 52/88/54 44/74/54 45/89/54
f 43/83/55 49/90/55 42/91/55
f 41/85/56 47/92/56 40/93/56
f 58/94/57 50/95/57 51/82/57
f 56/96/58 48/97/58 49/84/58
f 47/87/59 54/98/59 110/9/59
f 114/10/60 60/99/60 53/80/60
f 59/100/61 51/82/61 52/88/61
f 57/101/62 49/84/62 50/102/62
f 55/103/63 47/92/63 48/97/63
f 60/99/64 52/104/64 53/80/64
f 114/10/65 67/105/65 60/99/65
f 66/106/66 58/107/66 59/108/66
f 64/109/67 56/96/67 57/101/67
f 55/103/68 61/110/68 54/111/68
f 60/112/69 66/106/69 59/108/69
f 65/113/70 57/114/70 58/107/70
f 63/115/71 55/103/71 56/96/71
f 54/98/72 61/116/72 110/9/72
f 64/117/73 70/118/73 63/119/73
f 69/120/74 61/116/74 62/121/74
f 74/122/75 66/106/75 67/123/75
f 72/124/76 64/125/76 65/113/76
f 70/118/77 62/126/77 63/119/77
f 61/116/78 68/127/78 110/9/78
f 114/10/79 74/128/79 67/105/79
f 73/129/80 65/113/80 66/106/80
f 81/130/81 73/129/81 74/122/81
f 79/131/82 71/132/82 72/133/82
f 77/134/83 69/135/83 70/118/83
f 68/127/84 75/136/84 110/9/84
f 114/10/85 81/137/85 74/128/85
f 80/138/86 72/124/86 73/129/86
f 78/139/87 70/118/87 71/132/87
f 69/120/88 75/136/88 68/127/88
f 84/140/89 76/141/89 77/142/89
f 75/136/90 82/143/90 110/9/90
f 114/10/91 88/144/91 81/137/91
f 80/145/92 86/146/92 79/147/92
f 78/139/93 84/148/93 77/134/93
f 76/141/94 82/149/94 75/150/94
f 88/151/95 80/145/95 81/152/95
f 86/146/96 78/153/96 79/147/96
f 114/10/97 95/154/97 88/144/97
f 87/155/98 93/156/98 86/146/98
f 85/157/99 91/158/99 84/140/99
f 83/159/100 89/160/100 82/149/100
f 95/161/101 87/155/101 88/151/101
f 93/156/102 85/162/102 86/146/102
f 91/158/103 83/159/103 84/140/103
f 82/143/104 89/163/104 110/9/104
f 90/164/105 96/165/105 89/160/105
f 102/166/106 94/167/106 95/161/106
f 100/168/107 92/169/107 93/156/107
f 98/170/108 90/164/108 91/158/108
f 89/163/109 96/171/109 110/9/109
f 114/10/110 102/172/110 95/154/110
f 94/167/111 100/168/111 93/156/111
f 92/173/112 98/174/112 91/175/112
f 109/176/113 101/177/113 102/178/113
f 107/179/114 99/180/114 100/181/114
f 105/182/115 97/183/115 98/174/115
f 96/171/116 103/184/116 110/9/116
f 114/10/117 109/185/117 102/172/117
f 101/177/118 107/186/118 100/187/118
f 106/188/119 98/174/119 99/180/119
f 97/189/120 103/184/120 96/171/120
f 103/184/121 111/7/121 110/9/121
f 114/10/122 4/12/122 109/185/122
f 108/190/123 3/3/123 107/186/123
f 106/188/124 2/191/124 105/182/124
f 1/192/125 103/184/125 104/193/125
f 4/18/126 108/190/126 109/176/126
f 3/3/127 106/194/127 107/186/127
f 105/182/128 1/195/128 104/196/128
f 9/1/1 8/197/1 112/2/1
f 7/4/2 6/26/2 1/5/2
f 113/13/5 10/198/5 9/1/5
f 112/14/6 8/24/6 7/4/6
f 1/5/7 6/26/7 5/15/7
f 11/17/8 10/198/8 113/13/8
f 17/20/10 16/28/10 9/21/10
f 15/23/11 14/38/11 7/4/11
f 13/25/12 12/32/12 5/15/12
f 18/19/13 17/34/13 10/27/13
f 16/28/14 15/36/14 8/29/14
f 7/4/15 14/38/15 13/25/15
f 13/25/17 20/199/17 19/31/17
f 18/19/18 25/40/18 24/33/18
f 23/35/19 22/42/19 15/36/19
f 21/37/20 20/199/20 13/25/20
f 24/41/23 23/35/23 16/28/23
f 22/42/24 21/200/24 14/43/24
f 25/44/25 32/66/25 31/45/25
f 30/47/26 29/201/26 22/42/26
f 28/48/27 27/63/27 20/49/27
f 31/45/30 30/60/30 23/53/30
f 22/54/31 29/62/31 28/48/31
f 20/49/32 27/63/32 26/55/32
f 38/59/35 37/67/35 30/60/35
f 36/61/36 35/72/36 28/48/36
f 27/63/37 34/69/37 33/64/37
f 39/65/38 38/59/38 31/45/38
f 37/67/39 36/202/39 29/68/39
f 28/48/40 35/72/40 34/69/40
f 45/70/41 44/203/41 37/67/41
f 43/71/42 42/77/42 35/72/42
f 41/73/43 40/204/43 33/64/43
f 39/65/44 46/205/44 45/70/44
f 44/74/45 43/83/45 36/75/45
f 42/77/46 41/73/46 34/69/46
f 53/80/49 52/104/49 45/81/49
f 51/82/50 50/95/50 43/83/50
f 49/84/51 48/97/51 41/85/51
f 52/88/54 51/82/54 44/74/54
f 43/83/55 50/95/55 49/90/55
f 41/85/56 48/97/56 47/92/56
f 58/94/57 57/206/57 50/95/57
f 56/96/58 55/103/58 48/97/58
f 59/100/61 58/94/61 51/82/61
f 57/101/62 56/96/62 49/84/62
f 55/103/63 54/111/63 47/92/63
f 60/99/64 59/207/64 52/104/64
f 66/106/66 65/113/66 58/107/66
f 64/109/67 63/115/67 56/96/67
f 55/103/68 62/208/68 61/110/68
f 60/112/69 67/123/69 66/106/69
f 65/113/70 64/125/70 57/114/70
f 63/115/71 62/208/71 55/103/71
f 64/117/73 71/132/73 70/118/73
f 69/120/74 68/127/74 61/116/74
f 74/122/75 73/129/75 66/106/75
f 72/124/76 71/209/76 64/125/76
f 70/118/77 69/135/77 62/126/77
f 73/129/80 72/124/80 65/113/80
f 81/130/81 80/138/81 73/129/81
f 79/131/82 78/139/82 71/132/82
f 77/134/83 76/210/83 69/135/83
f 80/138/86 79/211/86 72/124/86
f 78/139/87 77/134/87 70/118/87
f 69/120/88 76/212/88 75/136/88
f 84/140/89 83/159/89 76/141/89
f 80/145/92 87/155/92 86/146/92
f 78/139/93 85/213/93 84/148/93
f 76/141/94 83/159/94 82/149/94
f 88/151/95 87/155/95 80/145/95
f 86/146/96 85/162/96 78/153/96
f 87/155/98 94/167/98 93/156/98
f 85/157/99 92/214/99 91/158/99
f 83/159/100 90/164/100 89/160/100
f 95/161/101 94/167/101 87/155/101
f 93/156/102 92/169/102 85/162/102
f 91/158/103 90/164/103 83/159/103
f 90/164/105 97/215/105 96/165/105
f 102/166/106 101/216/106 94/167/106
f 100/168/107 99/217/107 92/169/107
f 98/170/108 97/215/108 90/164/108
f 94/167/111 101/216/111 100/168/111
f 92/173/112 99/180/112 98/174/112
f 109/176/113 108/190/113 101/177/113
f 107/179/114 106/188/114 99/180/114
f 105/182/115 104/196/115 97/183/115
f 101/177/118 108/190/118 107/186/118
f 106/188/119 105/182/119 98/174/119
f 97/189/120 104/193/120 103/184/120
f 108/190/123 113/13/123 3/3/123
f 106/188/124 112/218/124 2/191/124
f 1/192/125 111/7/125 103/184/125
f 4/18/126 113/13/126 108/190/126
f 3/3/127 112/2/127 106/194/127
f 105/182/128 2/191/128 1/195/128
